<?xml version="1.0" encoding="UTF-8" standalone="no"?>
<!-- Generator: Adobe Illustrator 19.1.0, SVG Export Plug-In . SVG Version: 6.00 Build 0)  -->

<svg
   version="1.1"
   id="Ebene_1"
   x="0px"
   y="0px"
   width="400"
   height="216.00504"
   viewBox="0 0 400 216.00503"
   enable-background="new 0 0 130 70.4"
   xml:space="preserve"
   sodipodi:docname="Stifterverband für die Deutsche Wissenschaft Logo 2022-02-20.svg"
   inkscape:version="1.1.1 (3bf5ae0d25, 2021-09-20)"
   xmlns:inkscape="http://www.inkscape.org/namespaces/inkscape"
   xmlns:sodipodi="http://sodipodi.sourceforge.net/DTD/sodipodi-0.dtd"
   xmlns:xlink="http://www.w3.org/1999/xlink"
   xmlns="http://www.w3.org/2000/svg"
   xmlns:svg="http://www.w3.org/2000/svg"><defs
   id="defs59"><defs
     id="defs3">
		<rect
   id="SVGID_1_"
   x="-36"
   width="202.3"
   height="79.599998"
   y="0" />
	</defs><clipPath
     id="SVGID_2_">
		<use
   xlink:href="#SVGID_1_"
   overflow="visible"
   id="use5"
   x="0"
   y="0"
   width="100%"
   height="100%" />
	</clipPath></defs><sodipodi:namedview
   id="namedview57"
   pagecolor="#ffffff"
   bordercolor="#111111"
   borderopacity="1"
   inkscape:pageshadow="0"
   inkscape:pageopacity="0"
   inkscape:pagecheckerboard="1"
   showgrid="false"
   fit-margin-top="0"
   fit-margin-left="0"
   fit-margin-right="0"
   fit-margin-bottom="0"
   inkscape:zoom="1.4386903"
   inkscape:cx="212.3459"
   inkscape:cy="74.720735"
   inkscape:window-width="1600"
   inkscape:window-height="837"
   inkscape:window-x="-8"
   inkscape:window-y="-8"
   inkscape:window-maximized="1"
   inkscape:current-layer="Ebene_1" />
<path
   clip-path="url(#SVGID_2_)"
   fill="#f15a29"
   d="m 45.4,23.5 c 0,-2.2 0.4,-4.3 1.1,-6.3 L 43.6,16 c -0.8,2.3 -1.3,4.9 -1.3,7.5 0,11.8 9.1,21.6 20.7,22.6 V 43 C 53.1,42 45.4,33.6 45.4,23.5"
   id="path8"
   transform="matrix(3.0902009,0,0,3.0902009,-1.10808,-0.61804018)" /><path
   clip-path="url(#SVGID_2_)"
   fill="none"
   stroke="#f15a29"
   stroke-miterlimit="10"
   d="m 45.4,23.5 c 0,-2.2 0.4,-4.3 1.1,-6.3 L 43.6,16 c -0.8,2.3 -1.3,4.9 -1.3,7.5 0,11.8 9.1,21.6 20.7,22.6 V 43 C 53.1,42 45.4,33.6 45.4,23.5 Z"
   id="path10"
   transform="matrix(3.0902009,0,0,3.0902009,-1.10808,-0.61804018)" /><path
   clip-path="url(#SVGID_2_)"
   fill="#6792a1"
   d="M 85.2,12.7 C 81.4,5.5 73.8,0.7 65.1,0.7 56.5,0.7 49,5.5 45.1,12.6 l 2.9,1.2 c 3.4,-5.9 9.8,-10 17.1,-10 7.4,0 13.8,4.1 17.2,10.1 z"
   id="path12"
   transform="matrix(3.0902009,0,0,3.0902009,-1.10808,-0.61804018)" /><path
   clip-path="url(#SVGID_2_)"
   fill="none"
   stroke="#6792a1"
   stroke-miterlimit="10"
   d="M 85.2,12.7 C 81.4,5.5 73.8,0.7 65.1,0.7 56.5,0.7 49,5.5 45.1,12.6 l 2.9,1.2 c 3.4,-5.9 9.8,-10 17.1,-10 7.4,0 13.8,4.1 17.2,10.1 z"
   id="path14"
   transform="matrix(3.0902009,0,0,3.0902009,-1.10808,-0.61804018)" /><path
   clip-path="url(#SVGID_2_)"
   fill="#a2a190"
   d="m 87.9,23.5 c 0,-2.6 -0.5,-5 -1.2,-7.3 l -2.8,1.1 c 0.6,1.9 1,4 1,6.1 0,10.3 -8,18.8 -18.1,19.6 v 3.1 C 78.6,45.3 87.9,35.5 87.9,23.5"
   id="path16"
   transform="matrix(3.0902009,0,0,3.0902009,-1.10808,-0.61804018)" /><path
   clip-path="url(#SVGID_2_)"
   fill="none"
   stroke="#a3a790"
   stroke-miterlimit="10"
   d="m 87.9,23.5 c 0,-2.6 -0.5,-5 -1.2,-7.3 l -2.8,1.1 c 0.6,1.9 1,4 1,6.1 0,10.3 -8,18.8 -18.1,19.6 v 3.1 C 78.6,45.3 87.9,35.5 87.9,23.5 Z"
   id="path18"
   transform="matrix(3.0902009,0,0,3.0902009,-1.10808,-0.61804018)" />
<path
   fill="#2a4f5d"
   d="m 178.74161,99.504469 c -0.92706,-0.92706 -1.5451,-1.5451 -0.61804,-3.090201 l 3.70824,-6.180402 c 0.92706,-1.5451 2.47216,-1.5451 3.70824,-0.61804 4.32629,3.090201 8.96159,6.180402 15.76003,6.180402 5.56236,0 9.57962,-3.399221 9.57962,-7.725502 0,-4.944322 -4.6353,-8.652563 -13.28786,-12.051784 -9.88865,-3.708241 -19.77729,-9.888643 -19.77729,-21.631406 0,-8.961583 6.79844,-19.159246 23.48553,-19.159246 10.8157,0 18.85022,5.253342 21.01337,6.798442 0.92706,0.61804 1.23608,2.163141 0.61804,3.399221 l -4.01727,5.562362 c -0.92706,1.23608 -2.47216,1.85412 -3.70824,1.23608 -4.6353,-2.781181 -8.65256,-5.562361 -14.52394,-5.562361 -5.87138,0 -9.2706,3.0902 -9.2706,7.107462 0,4.635301 4.01726,7.725502 12.3608,11.124723 10.19766,4.017261 21.94043,9.579623 21.94043,22.558466 0,10.197663 -9.27061,19.777285 -24.10357,19.777285 -13.28786,0 -20.08631,-5.25334 -22.86749,-7.725501 z"
   id="path22"
   style="stroke-width:3.0902" />
<path
   fill="#2a4f5d"
   d="m 0.43702045,212.2968 c -0.30902009,-0.30902 -0.61804018,-0.61804 -0.30902009,-1.23608 l 1.85412054,-2.78118 c 0.3090201,-0.61804 1.2360804,-0.61804 1.5451005,-0.30902 1.8541205,1.23608 3.708241,2.78118 6.7984416,2.78118 2.163141,0 4.017262,-1.5451 4.017262,-3.39922 0,-2.16314 -1.854121,-3.70824 -5.5623621,-5.25334 -4.0172612,-1.5451 -8.34354245,-4.32628 -8.34354245,-9.57962 0,-4.01727 2.78118085,-8.34355 9.88864255,-8.34355 4.635302,0 8.034523,2.16314 8.961583,3.0902 0.30902,0.30902 0.61804,0.92706 0.30902,1.5451 l -2.163141,2.16315 c -0.30902,0.61804 -0.92706,0.92706 -1.5451,0.61804 -1.854121,-1.23608 -3.708241,-2.47216 -6.1804018,-2.47216 -2.4721608,0 -4.0172612,1.5451 -4.0172612,3.0902 0,2.16314 1.5451004,3.39922 5.253342,4.94432 4.326281,1.85412 9.270602,4.32628 9.270602,9.88864 0,4.6353 -4.017261,8.65256 -10.197663,8.65256 -5.2533413,0.30902 -8.3435422,-2.16314 -9.57962255,-3.39922 z"
   id="path26"
   style="stroke-width:3.0902" /><path
   fill="#2a4f5d"
   d="m 33.50217,189.73834 h -6.798442 c -0.61804,0 -0.92706,-0.30902 -0.92706,-0.92707 v -3.70824 c 0,-0.30902 0.30902,-0.92706 0.92706,-0.92706 h 19.159246 c 0.61804,0 0.92706,0.30902 0.92706,0.92706 v 3.70824 c 0,0.30903 -0.30902,0.92707 -0.92706,0.92707 h -6.798442 v 24.7216 c 0,0.30902 -0.30902,0.92706 -0.927061,0.92706 H 34.12021 c -0.30902,0 -0.92706,-0.30902 -0.92706,-0.92706 v -24.7216 z"
   id="path28"
   style="stroke-width:3.0902" /><path
   fill="#2a4f5d"
   d="m 54.515536,185.41205 c 0,-0.30902 0.30902,-0.92706 0.92706,-0.92706 h 4.017262 c 0.30902,0 0.92706,0.30902 0.92706,0.92706 v 29.35691 c 0,0.30902 -0.30902,0.92706 -0.92706,0.92706 h -4.017262 c -0.30902,0 -0.92706,-0.30902 -0.92706,-0.92706 z"
   id="path30"
   style="stroke-width:3.0902" /><path
   fill="#2a4f5d"
   d="m 70.584581,185.41205 c 0,-0.30902 0.30902,-0.92706 0.92706,-0.92706 h 17.923165 c 0.618041,0 0.927061,0.30902 0.927061,0.92706 v 3.70825 c 0,0.30902 -0.30902,0.92706 -0.927061,0.92706 H 76.146943 v 8.34354 h 10.815703 c 0.30902,0 0.92706,0.30902 0.92706,0.92706 v 3.70824 c 0,0.30902 -0.30902,0.92706 -0.92706,0.92706 H 76.146943 v 11.12472 c 0,0.30902 -0.309021,0.92706 -0.927061,0.92706 h -4.017261 c -0.61804,0 -0.92706,-0.30902 -0.92706,-0.92706 v -29.66593 z"
   id="path32"
   style="stroke-width:3.0902" /><path
   fill="#2a4f5d"
   d="m 102.72267,189.73834 h -6.798442 c -0.61804,0 -0.92706,-0.30902 -0.92706,-0.92707 v -3.70824 c 0,-0.30902 0.30902,-0.92706 0.92706,-0.92706 h 19.159242 c 0.61804,0 0.92706,0.30902 0.92706,0.92706 v 3.70824 c 0,0.30903 -0.30902,0.92707 -0.92706,0.92707 h -6.79844 v 24.7216 c 0,0.30902 -0.30902,0.92706 -0.92706,0.92706 h -4.01726 c -0.30902,0 -0.92706,-0.30902 -0.92706,-0.92706 v -24.7216 z"
   id="path34"
   style="stroke-width:3.0902" /><path
   fill="#2a4f5d"
   d="m 123.73604,185.41205 c 0,-0.30902 0.30902,-0.92706 0.92706,-0.92706 h 17.92316 c 0.61804,0 0.92706,0.30902 0.92706,0.92706 v 3.70825 c 0,0.30902 -0.30902,0.92706 -0.92706,0.92706 h -12.97884 v 7.10746 h 10.8157 c 0.30902,0 0.92706,0.30902 0.92706,0.92706 v 3.70824 c 0,0.61804 -0.30902,0.92706 -0.92706,0.92706 h -10.8157 v 7.7255 h 12.97884 c 0.61804,0 0.92706,0.30902 0.92706,0.92706 v 3.70824 c 0,0.30902 -0.30902,0.92706 -0.92706,0.92706 H 124.6631 c -0.61804,0 -0.92706,-0.30902 -0.92706,-0.92706 z"
   id="path36"
   style="stroke-width:3.0902" /><path
   fill="#2a4f5d"
   d="m 151.85686,185.41205 c 0,-0.30902 0.30902,-0.92706 0.92706,-0.92706 h 12.66983 c 5.25334,0 9.57962,4.32628 9.57962,9.57963 0,4.01726 -2.78118,7.41648 -6.48942,8.96158 l 6.1804,11.12472 c 0.30902,0.61804 0,1.23608 -0.61804,1.23608 h -5.25334 c -0.30902,0 -0.61804,-0.30902 -0.61804,-0.30902 l -5.87138,-11.74276 h -4.94432 v 11.12472 c 0,0.30902 -0.30902,0.92706 -0.92706,0.92706 h -4.01727 c -0.61804,0 -0.92706,-0.30902 -0.92706,-0.92706 v -29.04789 z m 12.97885,13.28787 c 2.47216,0 4.32628,-2.16314 4.32628,-4.6353 0,-2.47216 -2.16314,-4.32628 -4.32628,-4.32628 h -7.10746 v 8.65256 h 7.10746 z"
   id="path38"
   style="stroke-width:3.0902" /><path
   fill="#2a4f5d"
   d="m 179.66867,185.72107 c -0.30902,-0.61804 0,-1.23608 0.61804,-1.23608 h 4.6353 c 0.30902,0 0.61804,0.30902 0.61804,0.61804 l 8.65257,18.85023 h 0.30902 l 8.65256,-18.85023 c 0,-0.30902 0.30902,-0.61804 0.61804,-0.61804 h 4.6353 c 0.61804,0 0.92706,0.61804 0.61804,1.23608 L 195.4287,215.387 c 0,0.30902 -0.30902,0.61804 -0.61804,0.61804 h -0.30902 c -0.30902,0 -0.61804,-0.30902 -0.61804,-0.61804 z"
   id="path40"
   style="stroke-width:3.0902" /><path
   fill="#2a4f5d"
   d="m 215.20598,185.41205 c 0,-0.30902 0.30902,-0.92706 0.92706,-0.92706 h 17.92317 c 0.61804,0 0.92706,0.30902 0.92706,0.92706 v 3.70825 c 0,0.30902 -0.30902,0.92706 -0.92706,0.92706 h -12.97885 v 7.10746 h 10.81571 c 0.30902,0 0.92706,0.30902 0.92706,0.92706 v 3.70824 c 0,0.61804 -0.30902,0.92706 -0.92706,0.92706 h -10.81571 v 7.7255 h 12.97885 c 0.61804,0 0.92706,0.30902 0.92706,0.92706 v 3.70824 c 0,0.30902 -0.30902,0.92706 -0.92706,0.92706 h -17.92317 c -0.61804,0 -0.92706,-0.30902 -0.92706,-0.92706 z"
   id="path42"
   style="stroke-width:3.0902" /><path
   fill="#2a4f5d"
   d="m 243.32681,185.41205 c 0,-0.30902 0.30902,-0.92706 0.92706,-0.92706 h 12.66983 c 5.25334,0 9.57962,4.32628 9.57962,9.57963 0,4.01726 -2.78118,7.41648 -6.48942,8.96158 l 6.1804,11.12472 c 0.30902,0.61804 0,1.23608 -0.61804,1.23608 h -4.6353 c -0.30902,0 -0.61804,-0.30902 -0.61804,-0.30902 l -6.18041,-11.74276 h -4.94432 v 11.12472 c 0,0.30902 -0.30902,0.92706 -0.92706,0.92706 h -4.01726 c -0.61804,0 -0.92706,-0.30902 -0.92706,-0.92706 z m 12.97884,13.28787 c 2.47217,0 4.32629,-2.16314 4.32629,-4.6353 0,-2.47216 -2.16314,-4.32628 -4.32629,-4.32628 h -7.10746 v 8.65256 h 7.10746 z"
   id="path44"
   style="stroke-width:3.0902" /><path
   fill="#2a4f5d"
   d="m 290.91591,199.62698 c 2.47216,0.92706 5.25334,3.0902 5.25334,7.10746 0,4.94432 -4.32628,8.65256 -9.57963,8.65256 h -10.8157 c -0.61804,0 -0.92706,-0.30902 -0.92706,-0.92706 v -29.35691 c 0,-0.30902 0.30902,-0.92706 0.92706,-0.92706 h 10.50668 c 5.25335,0 9.27061,3.39922 9.27061,8.03453 0,3.70824 -2.16314,6.1804 -4.6353,7.41648 z m -5.25335,-2.16314 c 2.16314,0 3.70824,-1.85412 3.70824,-4.01726 0,-2.16314 -1.5451,-3.70824 -3.70824,-3.70824 h -4.94432 v 7.7255 z m 0.61804,12.66982 c 2.16314,0 4.01726,-1.85412 4.01726,-4.01726 0,-2.16314 -1.5451,-3.70824 -4.01726,-3.70824 h -5.56236 v 7.7255 z"
   id="path46"
   style="stroke-width:3.0902" /><path
   fill="#2a4f5d"
   d="m 301.11357,214.15092 13.59688,-29.66593 c 0,-0.30902 0.30902,-0.61804 0.61804,-0.61804 h 0.30902 c 0.30902,0 0.61804,0.30902 0.61804,0.61804 l 13.59689,29.66593 c 0.30902,0.61804 0,1.23608 -0.61804,1.23608 h -3.70824 c -0.61805,0 -0.92707,-0.30902 -1.23609,-0.92706 l -2.16314,-4.6353 h -13.28786 l -2.16314,4.6353 c -0.30902,0.30902 -0.61804,0.92706 -1.23608,0.92706 h -3.70824 c -0.61804,0 -0.92706,-0.61804 -0.61804,-1.23608 z m 19.15924,-9.2706 -4.32628,-9.57962 v 0 l -4.32628,9.57962 z"
   id="path48"
   style="stroke-width:3.0902" /><path
   fill="#2a4f5d"
   d="m 336.9599,184.79401 c 0,-0.30902 0.30902,-0.92706 0.92706,-0.92706 h 0.61804 c 0.30902,0 0.61804,0 0.61804,0.30902 l 17.92316,19.15925 v 0 -18.23219 c 0,-0.30902 0.30902,-0.92706 0.92706,-0.92706 h 4.01727 c 0.30902,0 0.92706,0.30902 0.92706,0.92706 v 29.66593 c 0,0.30902 -0.30902,0.92706 -0.92706,0.92706 h -0.61804 c -0.30902,0 -0.61804,0 -0.61804,-0.30902 l -18.23219,-20.0863 v 0 18.85022 c 0,0.30902 -0.30902,0.92706 -0.92706,0.92706 h -4.01726 c -0.30902,0 -0.92706,-0.30902 -0.92706,-0.92706 v -29.35691 z"
   id="path50"
   style="stroke-width:3.0902" /><path
   fill="#2a4f5d"
   d="m 373.11525,185.41205 c 0,-0.30902 0.30902,-0.92706 0.92706,-0.92706 h 10.50668 c 8.65256,0 15.45101,6.79845 15.45101,15.45101 0,8.65256 -7.10747,15.451 -15.45101,15.451 h -10.50668 c -0.30902,0 -0.92706,-0.30902 -0.92706,-0.92706 z m 10.8157,24.72161 c 5.87138,0 9.88865,-4.01726 9.88865,-10.19766 0,-5.87138 -4.32629,-10.19766 -9.88865,-10.19766 h -4.94432 v 20.0863 h 4.94432 z"
   id="path52"
   style="stroke-width:3.0902" />
</svg>
